<svg width="1438" height="66" viewBox="0 0 1438 66" fill="none" xmlns="http://www.w3.org/2000/svg">
<path d="M22.6812 46.8671L51.1557 27.9341L79.5869 46.5138L108.018 27.9341L136.573 46.5138L165.503 27.9341L194.433 46.5138L222.365 27.9341L250.92 46.5138L280.099 27.9341L308.031 46.5138L337.086 27.9341L365.766 46.5138L337.086 63.8467L308.031 46.5138L280.099 64.1501L250.92 46.5138L222.365 64.2647L194.433 46.5138L165.503 64.0584L136.573 46.5138L108.018 64.8367L79.5869 46.5138L51.1557 64.2919L22.6812 46.8671Z" fill="#CB653F"/>
<path d="M22.6812 46.8671L51.1557 27.9341L79.5869 46.5138M22.6812 46.8671L51.1557 64.2919L79.5869 46.5138M22.6812 46.8671L1.95312 33.6881M79.5869 46.5138L108.018 27.9341L136.573 46.5138M79.5869 46.5138L108.018 64.8367L136.573 46.5138M136.573 46.5138L165.503 27.9341L194.433 46.5138M136.573 46.5138L165.503 64.0584L194.433 46.5138M194.433 46.5138L222.365 27.9341L250.92 46.5138M194.433 46.5138L222.365 64.2647L250.92 46.5138M250.92 46.5138L280.099 27.9341L308.031 46.5138M250.92 46.5138L280.099 64.1501L308.031 46.5138M308.031 46.5138L337.086 27.9341L365.766 46.5138M308.031 46.5138L337.086 63.8467L365.766 46.5138M365.766 46.5138L388.415 33.6881" stroke="#CB653F" stroke-width="1.23102" stroke-linecap="round"/>
<path d="M23.9386 19.5797L23.607 19.0612L23.6039 19.0632L23.9386 19.5797ZM52.9928 1L53.3295 0.484753L52.9964 0.267078L52.6612 0.481451L52.9928 1ZM81.4239 19.5797L81.0872 20.095L81.424 20.315L81.7607 20.095L81.4239 19.5797ZM109.855 1L110.19 0.484082L109.854 0.265189L109.518 0.484755L109.855 1ZM138.41 19.5797L138.075 20.0956L138.408 20.3126L138.743 20.0976L138.41 19.5797ZM167.34 1L167.672 0.482099L167.34 0.268479L167.007 0.482099L167.34 1ZM196.269 19.5797L195.937 20.0976L196.275 20.315L196.61 20.0922L196.269 19.5797ZM224.202 1L224.537 0.484081L224.198 0.263238L223.861 0.48751L224.202 1ZM252.757 19.5797L252.421 20.0956L252.753 20.3117L253.088 20.0989L252.757 19.5797ZM281.936 1L282.277 0.48751L281.943 0.265631L281.605 0.480807L281.936 1ZM309.868 19.5797L309.527 20.0922L309.861 20.3146L310.2 20.0983L309.868 19.5797ZM338.922 1L339.261 0.486054L338.927 0.266171L338.591 0.48145L338.922 1ZM388.019 34.0923C388.303 34.2794 388.684 34.2009 388.872 33.9171C389.059 33.6332 388.98 33.2515 388.696 33.0644L388.019 34.0923ZM24.2702 20.0983L53.3244 1.51855L52.6612 0.481451L23.607 19.0612L24.2702 20.0983ZM52.6561 1.51525L81.0872 20.095L81.7607 19.0645L53.3295 0.484753L52.6561 1.51525ZM81.7607 20.095L110.191 1.51525L109.518 0.484755L81.0872 19.0645L81.7607 20.095ZM109.519 1.51592L138.075 20.0956L138.746 19.0638L110.19 0.484082L109.519 1.51592ZM138.743 20.0976L167.672 1.5179L167.007 0.482099L138.078 19.0618L138.743 20.0976ZM167.007 1.5179L195.937 20.0976L196.602 19.0618L167.672 0.482099L167.007 1.5179ZM196.61 20.0922L224.542 1.51249L223.861 0.48751L195.929 19.0672L196.61 20.0922ZM223.866 1.51592L252.421 20.0956L253.093 19.0638L224.537 0.484081L223.866 1.51592ZM253.088 20.0989L282.267 1.51919L281.605 0.480807L252.426 19.0605L253.088 20.0989ZM281.595 1.51249L309.527 20.0922L310.209 19.0672L282.277 0.48751L281.595 1.51249ZM310.2 20.0983L339.254 1.51855L338.591 0.48145L309.536 19.0612L310.2 20.0983ZM338.584 1.51395L388.019 34.0923L388.696 33.0644L339.261 0.486054L338.584 1.51395ZM23.6039 19.0632L0.407432 34.0968L1.07694 35.1298L24.2734 20.0962L23.6039 19.0632Z" fill="#CB653F"/>
<path d="M410.355 46.8671L438.83 27.9341L467.261 46.5138L495.691 27.9341L524.247 46.5138L553.177 27.9341L582.106 46.5138L610.039 27.9341L638.594 46.5138L667.773 27.9341L695.705 46.5138L724.759 27.9341L753.439 46.5138L724.759 63.8467L695.705 46.5138L667.773 64.1501L638.594 46.5138L610.039 64.2647L582.106 46.5138L553.177 64.0584L524.247 46.5138L495.691 64.8367L467.261 46.5138L438.83 64.2919L410.355 46.8671Z" fill="#CB653F"/>
<path d="M410.355 46.8671L438.83 27.9341L467.261 46.5138M410.355 46.8671L438.83 64.2919L467.261 46.5138M410.355 46.8671L389.627 33.6881M467.261 46.5138L495.691 27.9341L524.247 46.5138M467.261 46.5138L495.691 64.8367L524.247 46.5138M524.247 46.5138L553.177 27.9341L582.106 46.5138M524.247 46.5138L553.177 64.0584L582.106 46.5138M582.106 46.5138L610.039 27.9341L638.594 46.5138M582.106 46.5138L610.039 64.2647L638.594 46.5138M638.594 46.5138L667.773 27.9341L695.705 46.5138M638.594 46.5138L667.773 64.1501L695.705 46.5138M695.705 46.5138L724.759 27.9341L753.439 46.5138M695.705 46.5138L724.759 63.8467L753.439 46.5138M753.439 46.5138L776.089 33.6881" stroke="#CB653F" stroke-width="1.23102" stroke-linecap="round"/>
<path d="M411.612 19.5797L411.281 19.0612L411.278 19.0632L411.612 19.5797ZM440.667 1L441.003 0.484753L440.67 0.267078L440.335 0.481451L440.667 1ZM469.098 19.5797L468.761 20.095L469.098 20.315L469.434 20.095L469.098 19.5797ZM497.529 1L497.864 0.484082L497.528 0.265189L497.192 0.484755L497.529 1ZM526.084 19.5797L525.748 20.0956L526.082 20.3126L526.417 20.0976L526.084 19.5797ZM555.014 1L555.346 0.482099L555.014 0.268479L554.681 0.482099L555.014 1ZM583.943 19.5797L583.611 20.0976L583.949 20.315L584.284 20.0922L583.943 19.5797ZM611.875 1L612.211 0.484081L611.872 0.263238L611.534 0.48751L611.875 1ZM640.431 19.5797L640.095 20.0956L640.427 20.3117L640.762 20.0989L640.431 19.5797ZM669.61 1L669.951 0.48751L669.617 0.265631L669.279 0.480807L669.61 1ZM697.542 19.5797L697.201 20.0922L697.535 20.3146L697.874 20.0983L697.542 19.5797ZM726.596 1L726.935 0.486054L726.601 0.266171L726.265 0.48145L726.596 1ZM775.693 34.0923C775.977 34.2794 776.358 34.2009 776.545 33.9171C776.732 33.6332 776.654 33.2515 776.37 33.0644L775.693 34.0923ZM411.944 20.0983L440.998 1.51855L440.335 0.481451L411.281 19.0612L411.944 20.0983ZM440.33 1.51525L468.761 20.095L469.434 19.0645L441.003 0.484753L440.33 1.51525ZM469.434 20.095L497.865 1.51525L497.192 0.484755L468.761 19.0645L469.434 20.095ZM497.193 1.51592L525.748 20.0956L526.42 19.0638L497.864 0.484082L497.193 1.51592ZM526.417 20.0976L555.346 1.5179L554.681 0.482099L525.751 19.0618L526.417 20.0976ZM554.681 1.5179L583.611 20.0976L584.276 19.0618L555.346 0.482099L554.681 1.5179ZM584.284 20.0922L612.216 1.51249L611.534 0.48751L583.602 19.0672L584.284 20.0922ZM611.54 1.51592L640.095 20.0956L640.767 19.0638L612.211 0.484081L611.54 1.51592ZM640.762 20.0989L669.94 1.51919L669.279 0.480807L640.1 19.0605L640.762 20.0989ZM669.269 1.51249L697.201 20.0922L697.883 19.0672L669.951 0.48751L669.269 1.51249ZM697.874 20.0983L726.928 1.51855L726.265 0.48145L697.21 19.0612L697.874 20.0983ZM726.258 1.51395L775.693 34.0923L776.37 33.0644L726.935 0.486054L726.258 1.51395ZM411.278 19.0632L388.081 34.0968L388.751 35.1298L411.947 20.0962L411.278 19.0632Z" fill="#CB653F"/>
<path d="M798.029 46.8671L826.503 27.9341L854.935 46.5138L883.365 27.9341L911.921 46.5138L940.85 27.9341L969.78 46.5138L997.712 27.9341L1026.27 46.5138L1055.45 27.9341L1083.38 46.5138L1112.43 27.9341L1141.11 46.5138L1112.43 63.8467L1083.38 46.5138L1055.45 64.1501L1026.27 46.5138L997.712 64.2647L969.78 46.5138L940.85 64.0584L911.921 46.5138L883.365 64.8367L854.935 46.5138L826.503 64.2919L798.029 46.8671Z" fill="#CB653F"/>
<path d="M798.029 46.8671L826.503 27.9341L854.935 46.5138M798.029 46.8671L826.503 64.2919L854.935 46.5138M798.029 46.8671L777.301 33.6881M854.935 46.5138L883.365 27.9341L911.921 46.5138M854.935 46.5138L883.365 64.8367L911.921 46.5138M911.921 46.5138L940.85 27.9341L969.78 46.5138M911.921 46.5138L940.85 64.0584L969.78 46.5138M969.78 46.5138L997.712 27.9341L1026.27 46.5138M969.78 46.5138L997.712 64.2647L1026.27 46.5138M1026.27 46.5138L1055.45 27.9341L1083.38 46.5138M1026.27 46.5138L1055.45 64.1501L1083.38 46.5138M1083.38 46.5138L1112.43 27.9341L1141.11 46.5138M1083.38 46.5138L1112.43 63.8467L1141.11 46.5138M1141.11 46.5138L1163.76 33.6881" stroke="#CB653F" stroke-width="1.23102" stroke-linecap="round"/>
<path d="M799.286 19.5797L798.955 19.0612L798.952 19.0632L799.286 19.5797ZM828.34 1L828.677 0.484753L828.344 0.267078L828.009 0.481451L828.34 1ZM856.772 19.5797L856.435 20.095L856.772 20.315L857.108 20.095L856.772 19.5797ZM885.202 1L885.538 0.484082L885.202 0.265189L884.866 0.484755L885.202 1ZM913.758 19.5797L913.422 20.0956L913.756 20.3126L914.091 20.0976L913.758 19.5797ZM942.688 1L943.02 0.482099L942.688 0.268479L942.355 0.482099L942.688 1ZM971.617 19.5797L971.285 20.0976L971.623 20.315L971.958 20.0922L971.617 19.5797ZM999.549 1L999.885 0.484081L999.545 0.263238L999.208 0.48751L999.549 1ZM1028.1 19.5797L1027.77 20.0956L1028.1 20.3117L1028.44 20.0989L1028.1 19.5797ZM1057.28 1L1057.62 0.48751L1057.29 0.265631L1056.95 0.480807L1057.28 1ZM1085.22 19.5797L1084.87 20.0922L1085.21 20.3146L1085.55 20.0983L1085.22 19.5797ZM1114.27 1L1114.61 0.486054L1114.28 0.266171L1113.94 0.48145L1114.27 1ZM1163.37 34.0923C1163.65 34.2794 1164.03 34.2009 1164.22 33.9171C1164.41 33.6332 1164.33 33.2515 1164.04 33.0644L1163.37 34.0923ZM799.618 20.0983L828.672 1.51855L828.009 0.481451L798.955 19.0612L799.618 20.0983ZM828.004 1.51525L856.435 20.095L857.108 19.0645L828.677 0.484753L828.004 1.51525ZM857.108 20.095L885.539 1.51525L884.866 0.484755L856.435 19.0645L857.108 20.095ZM884.867 1.51592L913.422 20.0956L914.094 19.0638L885.538 0.484082L884.867 1.51592ZM914.091 20.0976L943.02 1.5179L942.355 0.482099L913.425 19.0618L914.091 20.0976ZM942.355 1.5179L971.285 20.0976L971.95 19.0618L943.02 0.482099L942.355 1.5179ZM971.958 20.0922L999.89 1.51249L999.208 0.48751L971.276 19.0672L971.958 20.0922ZM999.214 1.51592L1027.77 20.0956L1028.44 19.0638L999.885 0.484081L999.214 1.51592ZM1028.44 20.0989L1057.61 1.51919L1056.95 0.480807L1027.77 19.0605L1028.44 20.0989ZM1056.94 1.51249L1084.87 20.0922L1085.56 19.0672L1057.62 0.48751L1056.94 1.51249ZM1085.55 20.0983L1114.6 1.51855L1113.94 0.48145L1084.88 19.0612L1085.55 20.0983ZM1113.93 1.51395L1163.37 34.0923L1164.04 33.0644L1114.61 0.486054L1113.93 1.51395ZM798.952 19.0632L775.755 34.0968L776.425 35.1298L799.621 20.0962L798.952 19.0632Z" fill="#CB653F"/>
<path d="M1185.7 46.8671L1214.18 27.9341L1242.61 46.5138L1271.04 27.9341L1299.59 46.5138L1328.52 27.9341L1357.45 46.5138L1385.39 27.9341L1413.94 46.5138L1443.12 27.9341L1471.05 46.5138L1500.11 27.9341L1528.79 46.5138L1500.11 63.8467L1471.05 46.5138L1443.12 64.1501L1413.94 46.5138L1385.39 64.2647L1357.45 46.5138L1328.52 64.0584L1299.59 46.5138L1271.04 64.8367L1242.61 46.5138L1214.18 64.2919L1185.7 46.8671Z" fill="#CB653F"/>
<path d="M1185.7 46.8671L1214.18 27.9341L1242.61 46.5138M1185.7 46.8671L1214.18 64.2919L1242.61 46.5138M1185.7 46.8671L1164.97 33.6881M1242.61 46.5138L1271.04 27.9341L1299.59 46.5138M1242.61 46.5138L1271.04 64.8367L1299.59 46.5138M1299.59 46.5138L1328.52 27.9341L1357.45 46.5138M1299.59 46.5138L1328.52 64.0584L1357.45 46.5138M1357.45 46.5138L1385.39 27.9341L1413.94 46.5138M1357.45 46.5138L1385.39 64.2647L1413.94 46.5138M1413.94 46.5138L1443.12 27.9341L1471.05 46.5138M1413.94 46.5138L1443.12 64.1501L1471.05 46.5138M1471.05 46.5138L1500.11 27.9341L1528.79 46.5138M1471.05 46.5138L1500.11 63.8467L1528.79 46.5138M1528.79 46.5138L1551.44 33.6881" stroke="#CB653F" stroke-width="1.23102" stroke-linecap="round"/>
<path d="M1186.96 19.5797L1186.63 19.0612L1186.63 19.0632L1186.96 19.5797ZM1216.01 1L1216.35 0.484753L1216.02 0.267078L1215.68 0.481451L1216.01 1ZM1244.45 19.5797L1244.11 20.095L1244.45 20.315L1244.78 20.095L1244.45 19.5797ZM1272.88 1L1273.21 0.484082L1272.88 0.265189L1272.54 0.484755L1272.88 1ZM1301.43 19.5797L1301.1 20.0956L1301.43 20.3126L1301.76 20.0976L1301.43 19.5797ZM1330.36 1L1330.69 0.482099L1330.36 0.268479L1330.03 0.482099L1330.36 1ZM1359.29 19.5797L1358.96 20.0976L1359.3 20.315L1359.63 20.0922L1359.29 19.5797ZM1387.22 1L1387.56 0.484081L1387.22 0.263238L1386.88 0.48751L1387.22 1ZM1415.78 19.5797L1415.44 20.0956L1415.77 20.3117L1416.11 20.0989L1415.78 19.5797ZM1444.96 1L1445.3 0.48751L1444.96 0.265631L1444.63 0.480807L1444.96 1ZM1472.89 19.5797L1472.55 20.0922L1472.88 20.3146L1473.22 20.0983L1472.89 19.5797ZM1501.94 1L1502.28 0.486054L1501.95 0.266171L1501.61 0.48145L1501.94 1ZM1551.04 34.0923C1551.32 34.2794 1551.71 34.2009 1551.89 33.9171C1552.08 33.6332 1552 33.2515 1551.72 33.0644L1551.04 34.0923ZM1187.29 20.0983L1216.35 1.51855L1215.68 0.481451L1186.63 19.0612L1187.29 20.0983ZM1215.68 1.51525L1244.11 20.095L1244.78 19.0645L1216.35 0.484753L1215.68 1.51525ZM1244.78 20.095L1273.21 1.51525L1272.54 0.484755L1244.11 19.0645L1244.78 20.095ZM1272.54 1.51592L1301.1 20.0956L1301.77 19.0638L1273.21 0.484082L1272.54 1.51592ZM1301.76 20.0976L1330.69 1.5179L1330.03 0.482099L1301.1 19.0618L1301.76 20.0976ZM1330.03 1.5179L1358.96 20.0976L1359.62 19.0618L1330.69 0.482099L1330.03 1.5179ZM1359.63 20.0922L1387.56 1.51249L1386.88 0.48751L1358.95 19.0672L1359.63 20.0922ZM1386.89 1.51592L1415.44 20.0956L1416.11 19.0638L1387.56 0.484081L1386.89 1.51592ZM1416.11 20.0989L1445.29 1.51919L1444.63 0.480807L1415.45 19.0605L1416.11 20.0989ZM1444.62 1.51249L1472.55 20.0922L1473.23 19.0672L1445.3 0.48751L1444.62 1.51249ZM1473.22 20.0983L1502.28 1.51855L1501.61 0.48145L1472.56 19.0612L1473.22 20.0983ZM1501.61 1.51395L1551.04 34.0923L1551.72 33.0644L1502.28 0.486054L1501.61 1.51395ZM1186.63 19.0632L1163.43 34.0968L1164.1 35.1298L1187.29 20.0962L1186.63 19.0632Z" fill="#CB653F"/>
</svg>
