<svg width="1440" height="66" viewBox="0 0 1440 66" fill="none" xmlns="http://www.w3.org/2000/svg">
<path d="M-86.0141 18.8062L-57.5396 37.7393L-29.1084 19.1595L-0.677643 37.7393L27.8779 19.1595L56.8075 37.7393L85.7374 19.1595L113.669 37.7393L142.225 19.1595L171.404 37.7393L199.336 19.1595L228.39 37.7393L257.07 19.1595L228.39 1.82666L199.336 19.1595L171.404 1.52323L142.225 19.1595L113.669 1.4086L85.7374 19.1595L56.8075 1.61497L27.8779 19.1595L-0.677643 0.836678L-29.1084 19.1595L-57.5396 1.38149L-86.0141 18.8062Z" fill="#CB653F"/>
<path d="M-86.0141 18.8062L-57.5396 37.7393L-29.1084 19.1595M-86.0141 18.8062L-57.5396 1.38149L-29.1084 19.1595M-86.0141 18.8062L-106.742 31.9852M-29.1084 19.1595L-0.677642 37.7393L27.8779 19.1595M-29.1084 19.1595L-0.677642 0.836677L27.8779 19.1595M27.8779 19.1595L56.8075 37.7393L85.7373 19.1595M27.8779 19.1595L56.8075 1.61497L85.7373 19.1595M85.7373 19.1595L113.669 37.7393L142.225 19.1595M85.7373 19.1595L113.669 1.4086L142.225 19.1595M142.225 19.1595L171.404 37.7393L199.336 19.1595M142.225 19.1595L171.404 1.52323L199.336 19.1595M199.336 19.1595L228.39 37.7393L257.07 19.1595M199.336 19.1595L228.39 1.82667L257.07 19.1595M257.07 19.1595L279.72 31.9852" stroke="#CB653F" stroke-width="1.23102" stroke-linecap="round"/>
<path d="M-84.7567 46.0936L-85.0883 46.6122L-85.0914 46.6101L-84.7567 46.0936ZM-55.7025 64.6733L-55.3658 65.1886L-55.6989 65.4063L-56.0341 65.1919L-55.7025 64.6733ZM-27.2714 46.0936L-27.6081 45.5784L-27.2714 45.3583L-26.9347 45.5784L-27.2714 46.0936ZM1.15947 64.6733L1.49515 65.1893L1.15873 65.4082L0.822754 65.1886L1.15947 64.6733ZM29.715 46.0936L29.3793 45.5777L29.7128 45.3607L30.0476 45.5757L29.715 46.0936ZM58.6445 64.6733L58.9772 65.1912L58.6445 65.4049L58.3119 65.1912L58.6445 64.6733ZM87.5742 46.0936L87.2415 45.5757L87.5801 45.3583L87.9151 45.5811L87.5742 46.0936ZM115.506 64.6733L115.842 65.1893L115.503 65.4101L115.165 65.1858L115.506 64.6733ZM144.062 46.0936L143.726 45.5777L144.058 45.3616L144.392 45.5744L144.062 46.0936ZM173.241 64.6733L173.582 65.1858L173.248 65.4077L172.91 65.1925L173.241 64.6733ZM201.173 46.0936L200.832 45.5811L201.166 45.3588L201.504 45.5751L201.173 46.0936ZM230.227 64.6733L230.566 65.1873L230.232 65.4072L229.896 65.1919L230.227 64.6733ZM279.324 31.581C279.607 31.394 279.989 31.4724 280.176 31.7563C280.363 32.0401 280.285 32.4219 280.001 32.6089L279.324 31.581ZM-84.4251 45.5751L-55.3709 64.1548L-56.0341 65.1919L-85.0883 46.6122L-84.4251 45.5751ZM-56.0392 64.1581L-27.6081 45.5784L-26.9347 46.6089L-55.3658 65.1886L-56.0392 64.1581ZM-26.9347 45.5784L1.49619 64.1581L0.822754 65.1886L-27.6081 46.6089L-26.9347 45.5784ZM0.823784 64.1574L29.3793 45.5777L30.0506 46.6095L1.49515 65.1893L0.823784 64.1574ZM30.0476 45.5757L58.9772 64.1554L58.3119 65.1912L29.3823 46.6115L30.0476 45.5757ZM58.3119 64.1554L87.2415 45.5757L87.9068 46.6115L58.9772 65.1912L58.3119 64.1554ZM87.9151 45.5811L115.847 64.1609L115.165 65.1858L87.2333 46.6061L87.9151 45.5811ZM115.171 64.1574L143.726 45.5777L144.397 46.6095L115.842 65.1893L115.171 64.1574ZM144.392 45.5744L173.571 64.1541L172.91 65.1925L143.731 46.6128L144.392 45.5744ZM172.9 64.1609L200.832 45.5811L201.514 46.6061L173.582 65.1858L172.9 64.1609ZM201.504 45.5751L230.559 64.1548L229.896 65.1919L200.841 46.6122L201.504 45.5751ZM229.888 64.1594L279.324 31.581L280.001 32.6089L230.566 65.1873L229.888 64.1594ZM-85.0914 46.6101L-108.288 31.5766L-107.618 30.5435L-84.4219 45.5771L-85.0914 46.6101Z" fill="#CB653F"/>
<path d="M301.66 18.8062L330.134 37.7393L358.565 19.1595L386.996 37.7393L415.552 19.1595L444.481 37.7393L473.411 19.1595L501.343 37.7393L529.899 19.1595L559.078 37.7393L587.01 19.1595L616.064 37.7393L644.744 19.1595L616.064 1.82666L587.01 19.1595L559.078 1.52323L529.899 19.1595L501.343 1.4086L473.411 19.1595L444.481 1.61497L415.552 19.1595L386.996 0.836678L358.565 19.1595L330.134 1.38149L301.66 18.8062Z" fill="#CB653F"/>
<path d="M301.66 18.8062L330.134 37.7393L358.565 19.1595M301.66 18.8062L330.134 1.38149L358.565 19.1595M301.66 18.8062L280.932 31.9852M358.565 19.1595L386.996 37.7393L415.552 19.1595M358.565 19.1595L386.996 0.836677L415.552 19.1595M415.552 19.1595L444.481 37.7393L473.411 19.1595M415.552 19.1595L444.481 1.61497L473.411 19.1595M473.411 19.1595L501.343 37.7393L529.899 19.1595M473.411 19.1595L501.343 1.4086L529.899 19.1595M529.899 19.1595L559.078 37.7393L587.01 19.1595M529.899 19.1595L559.078 1.52323L587.01 19.1595M587.01 19.1595L616.064 37.7393L644.744 19.1595M587.01 19.1595L616.064 1.82667L644.744 19.1595M644.744 19.1595L667.394 31.9852" stroke="#CB653F" stroke-width="1.23102" stroke-linecap="round"/>
<path d="M302.917 46.0936L302.586 46.6122L302.582 46.6101L302.917 46.0936ZM331.971 64.6733L332.308 65.1886L331.975 65.4063L331.64 65.1919L331.971 64.6733ZM360.402 46.0936L360.066 45.5784L360.402 45.3583L360.739 45.5784L360.402 46.0936ZM388.833 64.6733L389.169 65.1893L388.833 65.4082L388.497 65.1886L388.833 64.6733ZM417.389 46.0936L417.053 45.5777L417.387 45.3607L417.721 45.5757L417.389 46.0936ZM446.318 64.6733L446.651 65.1912L446.318 65.4049L445.986 65.1912L446.318 64.6733ZM475.248 46.0936L474.915 45.5757L475.254 45.3583L475.589 45.5811L475.248 46.0936ZM503.18 64.6733L503.516 65.1893L503.176 65.4101L502.839 65.1858L503.18 64.6733ZM531.736 46.0936L531.4 45.5777L531.732 45.3616L532.066 45.5744L531.736 46.0936ZM560.915 64.6733L561.255 65.1858L560.922 65.4077L560.584 65.1925L560.915 64.6733ZM588.847 46.0936L588.506 45.5811L588.84 45.3588L589.178 45.5751L588.847 46.0936ZM617.901 64.6733L618.24 65.1873L617.906 65.4072L617.569 65.1919L617.901 64.6733ZM666.997 31.581C667.281 31.394 667.663 31.4724 667.85 31.7563C668.037 32.0401 667.959 32.4219 667.675 32.6089L666.997 31.581ZM303.249 45.5751L332.303 64.1548L331.64 65.1919L302.586 46.6122L303.249 45.5751ZM331.635 64.1581L360.066 45.5784L360.739 46.6089L332.308 65.1886L331.635 64.1581ZM360.739 45.5784L389.17 64.1581L388.497 65.1886L360.066 46.6089L360.739 45.5784ZM388.498 64.1574L417.053 45.5777L417.724 46.6095L389.169 65.1893L388.498 64.1574ZM417.721 45.5757L446.651 64.1554L445.986 65.1912L417.056 46.6115L417.721 45.5757ZM445.986 64.1554L474.915 45.5757L475.581 46.6115L446.651 65.1912L445.986 64.1554ZM475.589 45.5811L503.521 64.1609L502.839 65.1858L474.907 46.6061L475.589 45.5811ZM502.844 64.1574L531.4 45.5777L532.071 46.6095L503.516 65.1893L502.844 64.1574ZM532.066 45.5744L561.245 64.1541L560.584 65.1925L531.405 46.6128L532.066 45.5744ZM560.574 64.1609L588.506 45.5811L589.188 46.6061L561.255 65.1858L560.574 64.1609ZM589.178 45.5751L618.233 64.1548L617.569 65.1919L588.515 46.6122L589.178 45.5751ZM617.562 64.1594L666.997 31.581L667.675 32.6089L618.24 65.1873L617.562 64.1594ZM302.582 46.6101L279.386 31.5766L280.055 30.5435L303.252 45.5771L302.582 46.6101Z" fill="#CB653F"/>
<path d="M689.334 18.8062L717.808 37.7393L746.239 19.1595L774.67 37.7393L803.226 19.1595L832.155 37.7393L861.085 19.1595L889.017 37.7393L917.573 19.1595L946.752 37.7393L974.684 19.1595L1003.74 37.7393L1032.42 19.1595L1003.74 1.82666L974.684 19.1595L946.752 1.52323L917.573 19.1595L889.017 1.4086L861.085 19.1595L832.155 1.61497L803.226 19.1595L774.67 0.836678L746.239 19.1595L717.808 1.38149L689.334 18.8062Z" fill="#CB653F"/>
<path d="M689.334 18.8062L717.808 37.7393L746.239 19.1595M689.334 18.8062L717.808 1.38149L746.239 19.1595M689.334 18.8062L668.605 31.9852M746.239 19.1595L774.67 37.7393L803.226 19.1595M746.239 19.1595L774.67 0.836677L803.226 19.1595M803.226 19.1595L832.155 37.7393L861.085 19.1595M803.226 19.1595L832.155 1.61497L861.085 19.1595M861.085 19.1595L889.017 37.7393L917.573 19.1595M861.085 19.1595L889.017 1.4086L917.573 19.1595M917.573 19.1595L946.752 37.7393L974.684 19.1595M917.573 19.1595L946.752 1.52323L974.684 19.1595M974.684 19.1595L1003.74 37.7393L1032.42 19.1595M974.684 19.1595L1003.74 1.82667L1032.42 19.1595M1032.42 19.1595L1055.07 31.9852" stroke="#CB653F" stroke-width="1.23102" stroke-linecap="round"/>
<path d="M690.591 46.0936L690.259 46.6122L690.256 46.6101L690.591 46.0936ZM719.645 64.6733L719.982 65.1886L719.649 65.4063L719.314 65.1919L719.645 64.6733ZM748.076 46.0936L747.74 45.5784L748.076 45.3583L748.413 45.5784L748.076 46.0936ZM776.507 64.6733L776.843 65.1893L776.506 65.4082L776.17 65.1886L776.507 64.6733ZM805.063 46.0936L804.727 45.5777L805.06 45.3607L805.395 45.5757L805.063 46.0936ZM833.992 64.6733L834.325 65.1912L833.992 65.4049L833.66 65.1912L833.992 64.6733ZM862.922 46.0936L862.589 45.5757L862.928 45.3583L863.263 45.5811L862.922 46.0936ZM890.854 64.6733L891.19 65.1893L890.85 65.4101L890.513 65.1858L890.854 64.6733ZM919.409 46.0936L919.074 45.5777L919.406 45.3616L919.74 45.5744L919.409 46.0936ZM948.588 64.6733L948.929 65.1858L948.596 65.4077L948.258 65.1925L948.588 64.6733ZM976.52 46.0936L976.18 45.5811L976.514 45.3588L976.852 45.5751L976.52 46.0936ZM1005.57 64.6733L1005.91 65.1873L1005.58 65.4072L1005.24 65.1919L1005.57 64.6733ZM1054.67 31.581C1054.96 31.394 1055.34 31.4724 1055.52 31.7563C1055.71 32.0401 1055.63 32.4219 1055.35 32.6089L1054.67 31.581ZM690.923 45.5751L719.977 64.1548L719.314 65.1919L690.259 46.6122L690.923 45.5751ZM719.308 64.1581L747.74 45.5784L748.413 46.6089L719.982 65.1886L719.308 64.1581ZM748.413 45.5784L776.844 64.1581L776.17 65.1886L747.74 46.6089L748.413 45.5784ZM776.171 64.1574L804.727 45.5777L805.398 46.6095L776.843 65.1893L776.171 64.1574ZM805.395 45.5757L834.325 64.1554L833.66 65.1912L804.73 46.6115L805.395 45.5757ZM833.66 64.1554L862.589 45.5757L863.254 46.6115L834.325 65.1912L833.66 64.1554ZM863.263 45.5811L891.195 64.1609L890.513 65.1858L862.581 46.6061L863.263 45.5811ZM890.518 64.1574L919.074 45.5777L919.745 46.6095L891.19 65.1893L890.518 64.1574ZM919.74 45.5744L948.919 64.1541L948.258 65.1925L919.079 46.6128L919.74 45.5744ZM948.248 64.1609L976.18 45.5811L976.861 46.6061L948.929 65.1858L948.248 64.1609ZM976.852 45.5751L1005.91 64.1548L1005.24 65.1919L976.189 46.6122L976.852 45.5751ZM1005.24 64.1594L1054.67 31.581L1055.35 32.6089L1005.91 65.1873L1005.24 64.1594ZM690.256 46.6101L667.06 31.5766L667.729 30.5435L690.926 45.5771L690.256 46.6101Z" fill="#CB653F"/>
<path d="M1077.01 18.8062L1105.48 37.7393L1133.91 19.1595L1162.34 37.7393L1190.9 19.1595L1219.83 37.7393L1248.76 19.1595L1276.69 37.7393L1305.25 19.1595L1334.43 37.7393L1362.36 19.1595L1391.41 37.7393L1420.09 19.1595L1391.41 1.82666L1362.36 19.1595L1334.43 1.52323L1305.25 19.1595L1276.69 1.4086L1248.76 19.1595L1219.83 1.61497L1190.9 19.1595L1162.34 0.836678L1133.91 19.1595L1105.48 1.38149L1077.01 18.8062Z" fill="#CB653F"/>
<path d="M1077.01 18.8062L1105.48 37.7393L1133.91 19.1595M1077.01 18.8062L1105.48 1.38149L1133.91 19.1595M1077.01 18.8062L1056.28 31.9852M1133.91 19.1595L1162.34 37.7393L1190.9 19.1595M1133.91 19.1595L1162.34 0.836677L1190.9 19.1595M1190.9 19.1595L1219.83 37.7393L1248.76 19.1595M1190.9 19.1595L1219.83 1.61497L1248.76 19.1595M1248.76 19.1595L1276.69 37.7393L1305.25 19.1595M1248.76 19.1595L1276.69 1.4086L1305.25 19.1595M1305.25 19.1595L1334.43 37.7393L1362.36 19.1595M1305.25 19.1595L1334.43 1.52323L1362.36 19.1595M1362.36 19.1595L1391.41 37.7393L1420.09 19.1595M1362.36 19.1595L1391.41 1.82667L1420.09 19.1595M1420.09 19.1595L1442.74 31.9852" stroke="#CB653F" stroke-width="1.23102" stroke-linecap="round"/>
<path d="M1078.26 46.0936L1077.93 46.6122L1077.93 46.6101L1078.26 46.0936ZM1107.32 64.6733L1107.66 65.1886L1107.32 65.4063L1106.99 65.1919L1107.32 64.6733ZM1135.75 46.0936L1135.41 45.5784L1135.75 45.3583L1136.09 45.5784L1135.75 46.0936ZM1164.18 64.6733L1164.52 65.1893L1164.18 65.4082L1163.84 65.1886L1164.18 64.6733ZM1192.74 46.0936L1192.4 45.5777L1192.73 45.3607L1193.07 45.5757L1192.74 46.0936ZM1221.67 64.6733L1222 65.1912L1221.67 65.4049L1221.33 65.1912L1221.67 64.6733ZM1250.6 46.0936L1250.26 45.5757L1250.6 45.3583L1250.94 45.5811L1250.6 46.0936ZM1278.53 64.6733L1278.86 65.1893L1278.52 65.4101L1278.19 65.1858L1278.53 64.6733ZM1307.08 46.0936L1306.75 45.5777L1307.08 45.3616L1307.41 45.5744L1307.08 46.0936ZM1336.26 64.6733L1336.6 65.1858L1336.27 65.4077L1335.93 65.1925L1336.26 64.6733ZM1364.19 46.0936L1363.85 45.5811L1364.19 45.3588L1364.53 45.5751L1364.19 46.0936ZM1393.25 64.6733L1393.59 65.1873L1393.25 65.4072L1392.92 65.1919L1393.25 64.6733ZM1442.35 31.581C1442.63 31.394 1443.01 31.4724 1443.2 31.7563C1443.38 32.0401 1443.31 32.4219 1443.02 32.6089L1442.35 31.581ZM1078.6 45.5751L1107.65 64.1548L1106.99 65.1919L1077.93 46.6122L1078.6 45.5751ZM1106.98 64.1581L1135.41 45.5784L1136.09 46.6089L1107.66 65.1886L1106.98 64.1581ZM1136.09 45.5784L1164.52 64.1581L1163.84 65.1886L1135.41 46.6089L1136.09 45.5784ZM1163.85 64.1574L1192.4 45.5777L1193.07 46.6095L1164.52 65.1893L1163.85 64.1574ZM1193.07 45.5757L1222 64.1554L1221.33 65.1912L1192.4 46.6115L1193.07 45.5757ZM1221.33 64.1554L1250.26 45.5757L1250.93 46.6115L1222 65.1912L1221.33 64.1554ZM1250.94 45.5811L1278.87 64.1609L1278.19 65.1858L1250.25 46.6061L1250.94 45.5811ZM1278.19 64.1574L1306.75 45.5777L1307.42 46.6095L1278.86 65.1893L1278.19 64.1574ZM1307.41 45.5744L1336.59 64.1541L1335.93 65.1925L1306.75 46.6128L1307.41 45.5744ZM1335.92 64.1609L1363.85 45.5811L1364.54 46.6061L1336.6 65.1858L1335.92 64.1609ZM1364.53 45.5751L1393.58 64.1548L1392.92 65.1919L1363.86 46.6122L1364.53 45.5751ZM1392.91 64.1594L1442.35 31.581L1443.02 32.6089L1393.59 65.1873L1392.91 64.1594ZM1077.93 46.6101L1054.73 31.5766L1055.4 30.5435L1078.6 45.5771L1077.93 46.6101Z" fill="#CB653F"/>
</svg>
