<svg width="25" height="25" viewBox="0 0 25 25" fill="none" xmlns="http://www.w3.org/2000/svg">
<path d="M12.3633 14.1195C11.2383 14.1195 10.2633 13.2195 10.2633 12.0195C10.2633 10.8945 11.1633 9.91953 12.3633 9.91953C13.4883 9.91953 14.4633 10.8195 14.4633 12.0195C14.4633 13.1445 13.4883 14.1195 12.3633 14.1195Z" fill="white"/>
<path fill-rule="evenodd" clip-rule="evenodd" d="M14.9133 6.91953H9.81328C9.21328 6.99453 8.91328 7.06953 8.68828 7.14453C8.38828 7.21953 8.16328 7.36953 7.93828 7.59453C7.76024 7.77257 7.67612 7.95061 7.57445 8.16581C7.54765 8.22252 7.51956 8.28197 7.48828 8.34453C7.47668 8.37934 7.46328 8.41594 7.44892 8.45517C7.37046 8.66953 7.26328 8.96235 7.26328 9.46953V14.5695C7.33828 15.1695 7.41328 15.4695 7.48828 15.6945C7.56328 15.9945 7.71328 16.2195 7.93828 16.4445C8.11632 16.6226 8.29436 16.7067 8.50956 16.8084C8.56632 16.8352 8.62567 16.8632 8.68828 16.8945C8.72309 16.9061 8.75969 16.9195 8.79892 16.9339C9.01328 17.0123 9.3061 17.1195 9.81328 17.1195H14.9133C15.5133 17.0445 15.8133 16.9695 16.0383 16.8945C16.3383 16.8195 16.5633 16.6695 16.7883 16.4445C16.9663 16.2665 17.0504 16.0885 17.1521 15.8733C17.1789 15.8165 17.207 15.7571 17.2383 15.6945C17.2499 15.6597 17.2633 15.6231 17.2776 15.5839C17.3561 15.3695 17.4633 15.0767 17.4633 14.5695V9.46953C17.3883 8.86953 17.3133 8.56953 17.2383 8.34453C17.1633 8.04453 17.0133 7.81953 16.7883 7.59453C16.6102 7.41649 16.4322 7.33237 16.217 7.23069C16.1603 7.20392 16.1008 7.17578 16.0383 7.14453C16.0035 7.13293 15.9669 7.11953 15.9276 7.10517C15.7133 7.02671 15.4205 6.91953 14.9133 6.91953ZM12.3633 8.79453C10.5633 8.79453 9.13828 10.2195 9.13828 12.0195C9.13828 13.8195 10.5633 15.2445 12.3633 15.2445C14.1633 15.2445 15.5883 13.8195 15.5883 12.0195C15.5883 10.2195 14.1633 8.79453 12.3633 8.79453ZM16.4133 8.71953C16.4133 9.13374 16.0775 9.46953 15.6633 9.46953C15.2491 9.46953 14.9133 9.13374 14.9133 8.71953C14.9133 8.30532 15.2491 7.96953 15.6633 7.96953C16.0775 7.96953 16.4133 8.30532 16.4133 8.71953Z" fill="white"/>
<path fill-rule="evenodd" clip-rule="evenodd" d="M0.363281 3.76953C0.363281 1.69846 2.04221 0.0195312 4.11328 0.0195312H20.6133C22.6843 0.0195312 24.3633 1.69846 24.3633 3.76953V20.2695C24.3633 22.3406 22.6843 24.0195 20.6133 24.0195H4.11328C2.04221 24.0195 0.363281 22.3406 0.363281 20.2695V3.76953ZM9.81328 5.79453H14.9133C15.5883 5.86953 16.0383 5.94453 16.4133 6.09453C16.8633 6.31953 17.1633 6.46953 17.5383 6.84453C17.9133 7.21953 18.1383 7.59453 18.2883 7.96953C18.4383 8.34453 18.5883 8.79453 18.5883 9.46953V14.5695C18.5133 15.2445 18.4383 15.6945 18.2883 16.0695C18.0633 16.5195 17.9133 16.8195 17.5383 17.1945C17.1633 17.5695 16.7883 17.7945 16.4133 17.9445C16.0383 18.0945 15.5883 18.2445 14.9133 18.2445H9.81328C9.13828 18.1695 8.68828 18.0945 8.31328 17.9445C7.86328 17.7195 7.56328 17.5695 7.18828 17.1945C6.81328 16.8195 6.58828 16.4445 6.43828 16.0695C6.28828 15.6945 6.13828 15.2445 6.13828 14.5695V9.46953C6.21328 8.79453 6.28828 8.34453 6.43828 7.96953C6.66328 7.51953 6.81328 7.21953 7.18828 6.84453C7.56328 6.46953 7.93828 6.24453 8.31328 6.09453C8.68828 5.94453 9.13828 5.79453 9.81328 5.79453Z" fill="white"/>
</svg>
