<svg width="25" height="25" viewBox="0 0 25 25" fill="none" xmlns="http://www.w3.org/2000/svg">
<rect x="0.494141" y="0.0195312" width="24" height="24" rx="4" fill="#025949"/>
<path d="M17.7431 15.3341L14.0734 12.0195M10.9166 12.0195L7.24694 15.3341M6.9707 9.25739L11.4812 12.4148C11.8465 12.6704 12.0291 12.7983 12.2278 12.8478C12.4032 12.8915 12.5868 12.8915 12.7622 12.8478C12.9609 12.7983 13.1435 12.6704 13.5087 12.4148L18.0193 9.25739M9.62236 16.439H15.3676C16.2958 16.439 16.7599 16.439 17.1144 16.2583C17.4262 16.0994 17.6798 15.8459 17.8387 15.5341C18.0193 15.1796 18.0193 14.7155 18.0193 13.7873V10.2518C18.0193 9.32359 18.0193 8.85951 17.8387 8.50499C17.6798 8.19315 17.4262 7.93962 17.1144 7.78073C16.7599 7.6001 16.2958 7.6001 15.3676 7.6001H9.62236C8.6942 7.6001 8.23011 7.6001 7.8756 7.78073C7.56376 7.93962 7.31023 8.19315 7.15134 8.50499C6.9707 8.85951 6.9707 9.32359 6.9707 10.2518V13.7873C6.9707 14.7155 6.9707 15.1796 7.15134 15.5341C7.31023 15.8459 7.56376 16.0994 7.8756 16.2583C8.23011 16.439 8.6942 16.439 9.62236 16.439Z" stroke="#C29440" stroke-width="1.10486" stroke-linecap="round" stroke-linejoin="round"/>
</svg>
