<svg width="25" height="25" viewBox="0 0 25 25" fill="none" xmlns="http://www.w3.org/2000/svg">
<g id="instagram">
<g id="instagram_2">
<path d="M12.4941 14.1195C11.3691 14.1195 10.3941 13.2195 10.3941 12.0195C10.3941 10.8945 11.2941 9.91953 12.4941 9.91953C13.6191 9.91953 14.5941 10.8195 14.5941 12.0195C14.5941 13.1445 13.6191 14.1195 12.4941 14.1195Z" fill="#025949"/>
<path fill-rule="evenodd" clip-rule="evenodd" d="M15.0441 6.91953H9.94414C9.34414 6.99453 9.04414 7.06953 8.81914 7.14453C8.51914 7.21953 8.29414 7.36953 8.06914 7.59453C7.8911 7.77257 7.80698 7.95061 7.70531 8.16581C7.67851 8.22252 7.65042 8.28197 7.61914 8.34453C7.60754 8.37934 7.59414 8.41594 7.57978 8.45517C7.50132 8.66953 7.39414 8.96235 7.39414 9.46953V14.5695C7.46914 15.1695 7.54414 15.4695 7.61914 15.6945C7.69414 15.9945 7.84414 16.2195 8.06914 16.4445C8.24718 16.6226 8.42522 16.7067 8.64042 16.8084C8.69718 16.8352 8.75653 16.8632 8.81914 16.8945C8.85395 16.9061 8.89055 16.9195 8.92978 16.9339C9.14414 17.0123 9.43696 17.1195 9.94414 17.1195H15.0441C15.6441 17.0445 15.9441 16.9695 16.1691 16.8945C16.4691 16.8195 16.6941 16.6695 16.9191 16.4445C17.0972 16.2665 17.1813 16.0885 17.283 15.8733C17.3098 15.8165 17.3378 15.7571 17.3691 15.6945C17.3807 15.6597 17.3941 15.6231 17.4085 15.5839C17.487 15.3695 17.5941 15.0767 17.5941 14.5695V9.46953C17.5191 8.86953 17.4441 8.56953 17.3691 8.34453C17.2941 8.04453 17.1441 7.81953 16.9191 7.59453C16.7411 7.41649 16.5631 7.33237 16.3479 7.23069C16.2912 7.20392 16.2316 7.17578 16.1691 7.14453C16.1343 7.13293 16.0977 7.11953 16.0585 7.10517C15.8441 7.02671 15.5513 6.91953 15.0441 6.91953ZM12.4941 8.79453C10.6941 8.79453 9.26914 10.2195 9.26914 12.0195C9.26914 13.8195 10.6941 15.2445 12.4941 15.2445C14.2941 15.2445 15.7191 13.8195 15.7191 12.0195C15.7191 10.2195 14.2941 8.79453 12.4941 8.79453ZM16.5441 8.71953C16.5441 9.13374 16.2084 9.46953 15.7941 9.46953C15.3799 9.46953 15.0441 9.13374 15.0441 8.71953C15.0441 8.30532 15.3799 7.96953 15.7941 7.96953C16.2084 7.96953 16.5441 8.30532 16.5441 8.71953Z" fill="#025949"/>
<path fill-rule="evenodd" clip-rule="evenodd" d="M0.494141 3.76953C0.494141 1.69846 2.17307 0.0195312 4.24414 0.0195312H20.7441C22.8152 0.0195312 24.4941 1.69846 24.4941 3.76953V20.2695C24.4941 22.3406 22.8152 24.0195 20.7441 24.0195H4.24414C2.17307 24.0195 0.494141 22.3406 0.494141 20.2695V3.76953ZM9.94414 5.79453H15.0441C15.7191 5.86953 16.1691 5.94453 16.5441 6.09453C16.9941 6.31953 17.2941 6.46953 17.6691 6.84453C18.0441 7.21953 18.2691 7.59453 18.4191 7.96953C18.5691 8.34453 18.7191 8.79453 18.7191 9.46953V14.5695C18.6441 15.2445 18.5691 15.6945 18.4191 16.0695C18.1941 16.5195 18.0441 16.8195 17.6691 17.1945C17.2941 17.5695 16.9191 17.7945 16.5441 17.9445C16.1691 18.0945 15.7191 18.2445 15.0441 18.2445H9.94414C9.26914 18.1695 8.81914 18.0945 8.44414 17.9445C7.99414 17.7195 7.69414 17.5695 7.31914 17.1945C6.94414 16.8195 6.71914 16.4445 6.56914 16.0695C6.41914 15.6945 6.26914 15.2445 6.26914 14.5695V9.46953C6.34414 8.79453 6.41914 8.34453 6.56914 7.96953C6.79414 7.51953 6.94414 7.21953 7.31914 6.84453C7.69414 6.46953 8.06914 6.24453 8.44414 6.09453C8.81914 5.94453 9.26914 5.79453 9.94414 5.79453Z" fill="#025949"/>
</g>
</g>
</svg>
