<svg width="25" height="25" viewBox="0 0 25 25" fill="none" xmlns="http://www.w3.org/2000/svg">
<path fill-rule="evenodd" clip-rule="evenodd" d="M0.363281 3.76953C0.363281 1.69846 2.04221 0.0195312 4.11328 0.0195312H20.6133C22.6843 0.0195312 24.3633 1.69846 24.3633 3.76953V20.2695C24.3633 22.3406 22.6843 24.0195 20.6133 24.0195H4.11328C2.04221 24.0195 0.363281 22.3406 0.363281 20.2695V3.76953ZM6.51328 9.99453V18.0195H9.06329V9.99453H6.51328ZM6.36328 7.44453C6.36328 8.26953 6.96328 8.86953 7.78828 8.86953C8.61328 8.86953 9.21328 8.26953 9.21328 7.44453C9.21328 6.61953 8.61328 6.01953 7.78828 6.01953C7.03828 6.01953 6.36328 6.61953 6.36328 7.44453ZM15.8133 18.0195H18.2133V13.0695C18.2133 10.5945 16.7133 9.76953 15.2883 9.76953C14.0133 9.76953 13.1133 10.5945 12.8883 11.1195V9.99453H10.4883V18.0195H13.0383V13.7445C13.0383 12.6195 13.7883 12.0195 14.5383 12.0195C15.2883 12.0195 15.8133 12.3945 15.8133 13.6695V18.0195Z" fill="white"/>
</svg>
