<svg width="25" height="25" viewBox="0 0 25 25" fill="none" xmlns="http://www.w3.org/2000/svg">
<g id="whatsapp">
<g id="whatsapp_2">
<path fill-rule="evenodd" clip-rule="evenodd" d="M9.94415 16.2945C10.6941 16.7445 11.5941 16.9695 12.4941 16.9695C15.2691 16.9695 17.4441 14.7195 17.4441 12.0945C17.4441 10.7445 16.9942 9.54453 16.0191 8.56953C15.0441 7.66953 13.8441 7.14453 12.4941 7.14453C9.79414 7.14453 7.54414 9.39453 7.54414 12.0945C7.54414 12.9945 7.76914 13.8945 8.29414 14.7195L8.44415 14.9445L7.91914 16.7445L9.79414 16.2195L9.94415 16.2945ZM14.1441 12.7695C14.2941 12.7695 15.0441 13.1445 15.1941 13.2195C15.2175 13.2312 15.2409 13.2411 15.2639 13.2508C15.389 13.3036 15.5058 13.3529 15.5691 13.6695C15.6441 13.6695 15.6441 13.9695 15.4941 14.3445C15.4191 14.6445 14.8192 15.0195 14.5191 15.0195C14.4683 15.0195 14.4196 15.0238 14.3677 15.0284C14.1128 15.051 13.7781 15.0806 12.7191 14.6445C11.4048 14.1188 10.4935 12.8445 10.2376 12.4866C10.2015 12.4361 10.1784 12.4038 10.1691 12.3945C10.1564 12.369 10.1305 12.3282 10.0965 12.2745C9.93058 12.0125 9.56915 11.4418 9.56915 10.8195C9.56915 10.0695 9.94413 9.69453 10.0941 9.54453C10.2441 9.39453 10.3941 9.39453 10.4691 9.39453H10.7691C10.8441 9.39453 10.9941 9.39453 11.0691 9.61953C11.2191 9.91953 11.5191 10.6695 11.5191 10.7445C11.5191 10.7695 11.5275 10.7945 11.5358 10.8195C11.5525 10.8695 11.5691 10.9195 11.5191 10.9695C11.4816 11.007 11.4629 11.0445 11.4441 11.082C11.4254 11.1195 11.4066 11.157 11.3691 11.1945L11.1441 11.4195C11.0692 11.4945 10.9941 11.5695 11.0691 11.7195C11.1441 11.8695 11.4442 12.3945 11.8941 12.7695C12.4005 13.2126 12.8 13.3886 13.0025 13.4778C13.04 13.4943 13.0707 13.5078 13.0941 13.5195C13.2441 13.5195 13.3192 13.5195 13.3941 13.4445C13.4317 13.3695 13.5254 13.257 13.6191 13.1445C13.7129 13.032 13.8066 12.9195 13.8441 12.8445C13.9191 12.6945 13.9942 12.6945 14.1441 12.7695Z" fill="#025949"/>
<path fill-rule="evenodd" clip-rule="evenodd" d="M0.494141 3.76953C0.494141 1.69846 2.17307 0.0195312 4.24414 0.0195312H20.7441C22.8152 0.0195312 24.4941 1.69846 24.4941 3.76953V20.2695C24.4941 22.3406 22.8152 24.0195 20.7441 24.0195H4.24414C2.17307 24.0195 0.494141 22.3406 0.494141 20.2695V3.76953ZM12.4941 6.01953C14.0691 6.01953 15.5691 6.61953 16.6941 7.74453C17.8191 8.86953 18.4941 10.3695 18.4941 11.9445C18.4941 15.2445 15.7941 17.9445 12.4941 17.9445C11.5191 17.9445 10.5441 17.6445 9.64415 17.1945L6.49414 18.0195L7.31915 15.0195C6.79415 14.1195 6.49414 13.0695 6.49414 12.0195C6.49414 8.71953 9.19414 6.01953 12.4941 6.01953Z" fill="#025949"/>
</g>
</g>
</svg>
