<svg width="30" height="25" viewBox="0 0 30 25" fill="none" xmlns="http://www.w3.org/2000/svg">
<path d="M27.4902 20.3449L18.6331 12.3449M11.014 12.3449L2.15695 20.3449M1.49023 5.67822L12.3768 13.2988C13.2584 13.9159 13.6991 14.2245 14.1786 14.344C14.6021 14.4495 15.045 14.4495 15.4685 14.344C15.948 14.2245 16.3888 13.9159 17.2703 13.2988L28.1569 5.67822M7.89023 23.0116H21.7569C23.9971 23.0116 25.1172 23.0116 25.9729 22.5756C26.7255 22.1921 27.3374 21.5802 27.7209 20.8275C28.1569 19.9719 28.1569 18.8518 28.1569 16.6116V8.07822C28.1569 5.83801 28.1569 4.71791 27.7209 3.86226C27.3374 3.10961 26.7255 2.49769 25.9729 2.1142C25.1172 1.67822 23.9971 1.67822 21.7569 1.67822H7.89023C5.65002 1.67822 4.52992 1.67822 3.67427 2.1142C2.92162 2.49769 2.3097 3.10961 1.92621 3.86226C1.49023 4.71791 1.49023 5.83801 1.49023 8.07822V16.6116C1.49023 18.8518 1.49023 19.9719 1.92621 20.8275C2.3097 21.5802 2.92162 22.1921 3.67427 22.5756C4.52992 23.0116 5.65002 23.0116 7.89023 23.0116Z" stroke="#CB653F" stroke-width="2" stroke-linecap="round" stroke-linejoin="round"/>
</svg>
