<svg width="25" height="25" viewBox="0 0 25 25" fill="none" xmlns="http://www.w3.org/2000/svg">
<path d="M9.82287 14.3467C9.82287 14.3467 11.1354 15.8467 13.3229 15.8467C15.5104 15.8467 16.8229 14.3467 16.8229 14.3467M16.0729 9.34668H16.0829M10.5729 9.34668H10.5829M13.3229 20.3467C18.0173 20.3467 21.8229 16.5411 21.8229 11.8467C21.8229 7.15226 18.0173 3.34668 13.3229 3.34668C8.62845 3.34668 4.82287 7.15226 4.82287 11.8467C4.82287 12.7967 4.97871 13.7103 5.26624 14.5633C5.37444 14.8843 5.42854 15.0448 5.43829 15.1681C5.44793 15.2899 5.44065 15.3753 5.41052 15.4936C5.38001 15.6135 5.31266 15.7382 5.17796 15.9875L3.5423 19.015C3.30899 19.4469 3.19234 19.6628 3.21844 19.8295C3.24119 19.9746 3.32661 20.1024 3.45204 20.1789C3.59604 20.2668 3.84017 20.2415 4.32841 20.1911L9.44943 19.6617C9.60451 19.6457 9.68205 19.6376 9.75273 19.6404C9.82224 19.643 9.87131 19.6495 9.9391 19.6652C10.008 19.681 10.0947 19.7144 10.268 19.7812C11.2161 20.1465 12.2461 20.3467 13.3229 20.3467ZM16.5729 9.34668C16.5729 9.62282 16.349 9.84668 16.0729 9.84668C15.7967 9.84668 15.5729 9.62282 15.5729 9.34668C15.5729 9.07054 15.7967 8.84668 16.0729 8.84668C16.349 8.84668 16.5729 9.07054 16.5729 9.34668ZM11.0729 9.34668C11.0729 9.62282 10.849 9.84668 10.5729 9.84668C10.2967 9.84668 10.0729 9.62282 10.0729 9.34668C10.0729 9.07054 10.2967 8.84668 10.5729 8.84668C10.849 8.84668 11.0729 9.07054 11.0729 9.34668Z" stroke="#01352C" stroke-width="2" stroke-linecap="round" stroke-linejoin="round"/>
</svg>
