<svg width="33" height="33" viewBox="0 0 33 33" fill="none" xmlns="http://www.w3.org/2000/svg">
<path d="M12.0018 12.1492C12.9298 14.082 14.1949 15.8935 15.797 17.4957C17.3991 19.0978 19.2106 20.3628 21.1434 21.2908C21.3097 21.3706 21.3928 21.4105 21.498 21.4412C21.8718 21.5502 22.3308 21.4719 22.6474 21.2452C22.7365 21.1814 22.8127 21.1052 22.9651 20.9528C23.4312 20.4867 23.6643 20.2536 23.8987 20.1012C24.7825 19.5265 25.922 19.5265 26.8058 20.1012C27.0402 20.2536 27.2733 20.4867 27.7394 20.9528L27.9992 21.2126C28.7078 21.9212 29.0621 22.2755 29.2546 22.656C29.6373 23.4128 29.6373 24.3065 29.2546 25.0632C29.0621 25.4437 28.7078 25.798 27.9992 26.5066L27.7891 26.7168C27.0829 27.4229 26.7298 27.776 26.2498 28.0457C25.7171 28.3449 24.8898 28.5601 24.2788 28.5582C23.7282 28.5566 23.3519 28.4498 22.5993 28.2362C18.5548 27.0882 14.7383 24.9223 11.5543 21.7383C8.37036 18.5543 6.2044 14.7378 5.05644 10.6933C4.84283 9.94071 4.73602 9.56441 4.73439 9.01382C4.73257 8.40286 4.94772 7.57553 5.24695 7.04286C5.51661 6.56282 5.86969 6.20973 6.57585 5.50357L6.78603 5.29339C7.49462 4.5848 7.84892 4.23051 8.22943 4.03805C8.98618 3.65529 9.87986 3.65529 10.6366 4.03805C11.0171 4.23051 11.3714 4.5848 12.08 5.29339L12.3398 5.55322C12.806 6.01936 13.039 6.25243 13.1914 6.4868C13.7661 7.37065 13.7661 8.5101 13.1914 9.39395C13.039 9.62832 12.806 9.86139 12.3398 10.3275C12.1874 10.4799 12.1112 10.5562 12.0474 10.6452C11.8207 10.9618 11.7425 11.4208 11.8514 11.7946C11.8821 11.8998 11.922 11.9829 12.0018 12.1492Z" stroke="#CB653F" stroke-width="2" stroke-linecap="round" stroke-linejoin="round"/>
</svg>
